HIERARCHY
ROOT Bone
{
	OFFSET 0.000000 0.000000 0.000000
	CHANNELS 6 Xposition Yposition Zposition Xrotation Yrotation Zrotation
	JOINT Bone.001
	{
		OFFSET 0.003187 0.000000 0.108367
		CHANNELS 3 Xrotation Yrotation Zrotation
		JOINT Bone.002
		{
			OFFSET 0.015936 0.000000 0.098805
			CHANNELS 3 Xrotation Yrotation Zrotation
			JOINT Bone.003
			{
				OFFSET 0.012749 0.000000 0.098805
				CHANNELS 3 Xrotation Yrotation Zrotation
				JOINT Bone.004
				{
					OFFSET 0.012749 0.000000 0.098805
					CHANNELS 3 Xrotation Yrotation Zrotation
					JOINT Bone.005
					{
						OFFSET 0.012749 0.000000 0.098805
						CHANNELS 3 Xrotation Yrotation Zrotation
						JOINT Bone.006
						{
							OFFSET 0.006375 0.000000 0.098805
							CHANNELS 3 Xrotation Yrotation Zrotation
							JOINT Bone.007
							{
								OFFSET 0.006375 0.000000 0.098805
								CHANNELS 3 Xrotation Yrotation Zrotation
								End Site
								{
									OFFSET 0.009562 0.000000 0.098805
								}
							}
						}
					}
				}
			}
		}
	}
}
MOTION
Frames: 32
Frame Time: 0.041667
0.000000 0.000000 0.000000 0.000000 1.684684 0.000000 0.000000 7.477663 0.000000 0.000000 -1.809968 0.000000 0.000000 0.000000 0.000000 0.000000 0.000000 0.000000 0.000000 -3.660993 0.000000 0.000000 0.000000 0.000000 0.000000 1.836154 0.000000 
0.000000 0.000000 0.000000 0.000000 1.684684 0.000000 0.000000 7.477663 0.000000 0.000000 -1.809968 0.000000 0.000000 0.000000 0.000000 0.000000 0.000000 0.000000 0.000000 -3.660993 0.000000 0.000000 0.000000 0.000000 0.000000 1.836154 0.000000 
0.000000 0.000000 0.000000 0.000000 3.366461 0.000000 0.000000 3.985919 0.000000 0.000000 1.809968 0.000000 0.000000 -1.809968 0.000000 0.000000 0.000000 0.000000 0.000000 -1.824839 0.000000 0.000000 0.000000 0.000000 0.000000 0.000000 0.000000 
0.000000 0.000000 0.000000 0.000000 1.847610 0.000000 0.000000 7.314737 0.000000 0.000000 -1.809968 0.000000 0.000000 1.809968 0.000000 0.000000 -1.809968 0.000000 0.000000 0.000000 0.000000 0.000000 -1.824839 0.000000 0.000000 0.000000 0.000000 
0.000000 0.000000 0.000000 0.000000 1.735705 0.000000 0.000000 7.426642 0.000000 0.000000 -1.809968 0.000000 0.000000 1.809968 0.000000 0.000000 0.000000 0.000000 0.000000 -3.634807 0.000000 0.000000 0.000000 0.000000 0.000000 0.000000 0.000000 
0.000000 0.000000 0.000000 0.000000 1.684684 0.000000 0.000000 7.477663 0.000000 0.000000 -1.809968 0.000000 0.000000 1.809968 0.000000 0.000000 -1.809968 0.000000 0.000000 0.000000 0.000000 0.000000 -1.824839 0.000000 0.000000 0.000000 0.000000 
0.000000 0.000000 0.000000 0.000000 1.684684 0.000000 0.000000 7.477663 0.000000 0.000000 -1.809968 0.000000 0.000000 1.809968 0.000000 0.000000 -1.809968 0.000000 0.000000 0.000000 0.000000 0.000000 -1.824839 0.000000 0.000000 0.000000 0.000000 
0.000000 0.000000 0.000000 0.000000 1.789911 0.000000 0.000000 7.372436 0.000000 0.000000 -1.809968 0.000000 0.000000 1.809968 0.000000 0.000000 -1.809968 0.000000 0.000000 0.000000 0.000000 0.000000 -1.824839 0.000000 0.000000 0.000000 0.000000 
0.000000 0.000000 0.000000 0.000000 1.735705 0.000000 0.000000 7.426642 0.000000 0.000000 0.000000 0.000000 0.000000 0.000000 0.000000 0.000000 -1.809968 0.000000 0.000000 0.000000 0.000000 0.000000 -3.660993 0.000000 0.000000 1.836154 0.000000 
0.000000 0.000000 0.000000 0.000000 3.179830 0.000000 0.000000 5.982517 0.000000 0.000000 -1.809968 0.000000 0.000000 1.809968 0.000000 0.000000 -1.809968 0.000000 0.000000 0.000000 0.000000 0.000000 -3.660993 0.000000 0.000000 1.836154 0.000000 
0.000000 0.000000 0.000000 0.000000 3.179830 0.000000 0.000000 5.982517 0.000000 0.000000 -1.809968 0.000000 0.000000 1.809968 0.000000 0.000000 -1.809968 0.000000 0.000000 0.000000 0.000000 0.000000 -3.660993 0.000000 0.000000 1.836154 0.000000 
0.000000 0.000000 0.000000 0.000000 1.789911 0.000000 0.000000 7.372436 0.000000 0.000000 -1.809968 0.000000 0.000000 0.000000 0.000000 0.000000 1.809968 0.000000 0.000000 -3.634807 0.000000 0.000000 0.000000 0.000000 0.000000 0.000000 0.000000 
0.000000 0.000000 0.000000 0.000000 1.548158 0.000000 0.000000 7.614189 0.000000 0.000000 -1.809968 0.000000 0.000000 0.000000 0.000000 0.000000 0.000000 0.000000 0.000000 -1.824839 0.000000 0.000000 0.000000 0.000000 0.000000 0.000000 0.000000 
0.000000 0.000000 0.000000 0.000000 1.548158 0.000000 0.000000 7.614189 0.000000 0.000000 -1.809968 0.000000 0.000000 0.000000 0.000000 0.000000 0.000000 0.000000 0.000000 -1.824839 0.000000 0.000000 0.000000 0.000000 0.000000 0.000000 0.000000 
0.000000 0.000000 0.000000 0.000000 1.636577 0.000000 0.000000 5.715802 0.000000 0.000000 0.000000 0.000000 0.000000 1.809968 0.000000 0.000000 -3.634807 0.000000 0.000000 0.000000 0.000000 0.000000 -1.836154 0.000000 0.000000 0.000000 0.000000 
0.000000 0.000000 0.000000 0.000000 1.636577 0.000000 0.000000 5.715802 0.000000 0.000000 0.000000 0.000000 0.000000 1.809968 0.000000 0.000000 -3.634807 0.000000 0.000000 0.000000 0.000000 0.000000 -1.836154 0.000000 0.000000 0.000000 0.000000 
0.000000 0.000000 0.000000 0.000000 0.000000 0.000000 0.000000 8.880659 0.000000 0.000000 -1.755643 0.000000 0.000000 0.000000 0.000000 0.000000 0.000000 0.000000 0.000000 -1.769191 0.000000 0.000000 0.000000 0.000000 0.000000 -1.779491 0.000000 
0.000000 0.000000 0.000000 0.000000 0.000000 0.000000 0.000000 8.880659 0.000000 0.000000 -1.755643 0.000000 0.000000 0.000000 0.000000 0.000000 0.000000 0.000000 0.000000 -1.769191 0.000000 0.000000 0.000000 0.000000 0.000000 -1.779491 0.000000 
0.000000 0.000000 0.000000 0.000000 0.000000 0.000000 0.000000 8.880659 0.000000 0.000000 -1.755643 0.000000 0.000000 0.000000 0.000000 0.000000 0.000000 0.000000 0.000000 0.000000 0.000000 0.000000 -1.769191 0.000000 0.000000 0.000000 0.000000 
0.000000 0.000000 0.000000 0.000000 0.000000 0.000000 0.000000 7.125016 0.000000 0.000000 0.000000 0.000000 0.000000 1.755643 0.000000 0.000000 -1.755643 0.000000 0.000000 0.000000 0.000000 0.000000 0.000000 0.000000 0.000000 -1.769191 0.000000 
0.000000 0.000000 0.000000 0.000000 0.000000 0.000000 0.000000 7.125016 0.000000 0.000000 0.000000 0.000000 0.000000 0.000000 0.000000 0.000000 0.000000 0.000000 0.000000 0.000000 0.000000 0.000000 0.000000 0.000000 0.000000 0.000000 0.000000 
0.000000 0.000000 0.000000 0.000000 1.591140 0.000000 0.000000 5.533876 0.000000 0.000000 0.000000 0.000000 0.000000 -1.769191 0.000000 0.000000 0.000000 0.000000 0.000000 1.769191 0.000000 0.000000 -1.769191 0.000000 0.000000 0.000000 0.000000 
0.000000 0.000000 0.000000 0.000000 3.691386 0.000000 0.000000 3.433630 0.000000 0.000000 0.000000 0.000000 0.000000 -1.769191 0.000000 0.000000 0.000000 0.000000 0.000000 -1.779491 0.000000 0.000000 0.000000 0.000000 0.000000 0.000000 0.000000 
0.000000 0.000000 0.000000 0.000000 6.340192 0.000000 0.000000 3.122130 0.000000 0.000000 -1.867679 0.000000 0.000000 -1.884050 0.000000 0.000000 -1.896518 0.000000 0.000000 0.000000 0.000000 0.000000 0.000000 0.000000 0.000000 -1.904922 0.000000 
0.000000 0.000000 0.000000 0.000000 6.340192 0.000000 0.000000 4.151285 0.000000 0.000000 0.000000 0.000000 0.000000 0.000000 0.000000 0.000000 -4.151285 0.000000 0.000000 -2.103797 0.000000 0.000000 0.000000 0.000000 0.000000 -4.236395 0.000000 
0.000000 0.000000 0.000000 0.000000 4.969741 0.000000 0.000000 4.896066 0.000000 0.000000 4.755067 0.000000 0.000000 -2.356100 0.000000 0.000000 -2.398967 0.000000 0.000000 -2.434399 0.000000 0.000000 -2.461667 0.000000 0.000000 -2.480188 0.000000 
0.000000 0.000000 0.000000 0.000000 10.124672 0.000000 0.000000 2.679594 0.000000 0.000000 2.450853 0.000000 0.000000 -2.450853 0.000000 0.000000 -7.609837 0.000000 0.000000 0.000000 0.000000 0.000000 0.000000 0.000000 0.000000 -2.591867 0.000000 
0.000000 0.000000 0.000000 0.000000 26.565051 0.000000 0.000000 -11.309932 0.000000 0.000000 -2.450853 0.000000 0.000000 2.450853 0.000000 0.000000 -7.489953 0.000000 0.000000 -5.162604 0.000000 0.000000 0.000000 0.000000 0.000000 0.000000 0.000000 
0.000000 0.000000 0.000000 0.000000 39.805571 0.000000 0.000000 -20.515525 0.000000 0.000000 0.000000 0.000000 0.000000 0.000000 0.000000 0.000000 -2.590802 0.000000 0.000000 -8.168479 0.000000 0.000000 0.000000 0.000000 0.000000 -5.668360 0.000000 
0.000000 0.000000 0.000000 0.000000 34.215702 0.000000 0.000000 -11.382048 0.000000 0.000000 0.000000 0.000000 0.000000 -2.608795 0.000000 0.000000 0.000000 0.000000 0.000000 -2.699291 0.000000 0.000000 -5.636910 0.000000 0.000000 0.000000 0.000000 
0.000000 0.000000 0.000000 0.000000 26.565051 0.000000 0.000000 -5.710593 0.000000 0.000000 2.344132 0.000000 0.000000 -2.344132 0.000000 0.000000 0.000000 0.000000 0.000000 -2.419509 0.000000 0.000000 0.000000 0.000000 0.000000 -10.304846 0.000000 
0.000000 0.000000 0.000000 0.000000 13.134022 0.000000 0.000000 5.300927 0.000000 0.000000 0.000000 0.000000 0.000000 2.121096 0.000000 0.000000 0.000000 0.000000 0.000000 -2.121096 0.000000 0.000000 -2.174744 0.000000 0.000000 -6.797883 0.000000 
